<?xml version="1.0" standalone="no"?>
<!DOCTYPE svg PUBLIC "-//W3C//DTD SVG 20010904//EN"
 "http://www.w3.org/TR/2001/REC-SVG-20010904/DTD/svg10.dtd">
<svg version="1.0" xmlns="http://www.w3.org/2000/svg"
 width="500.000000pt" height="500.000000pt" viewBox="0 0 500.000000 500.000000"
 preserveAspectRatio="xMidYMid meet">

<g transform="translate(0.000000,500.000000) scale(0.100000,-0.100000)"
fill="#000000" stroke="none">
<path d="M1699 4141 c-14 -20 -939 -1156 -1014 -1246 -45 -54 -131 -161 -149
-185 -10 -13 -8 -13 11 0 12 8 163 122 335 252 172 130 414 313 538 407 124
93 228 167 232 163 3 -4 33 -65 66 -137 33 -71 77 -166 97 -210 20 -44 62
-134 92 -200 30 -66 81 -176 113 -245 32 -69 70 -152 85 -185 15 -33 42 -91
60 -130 18 -38 47 -101 65 -140 18 -38 47 -101 65 -140 74 -160 84 -183 110
-240 l26 -59 26 44 c37 66 51 89 155 265 203 343 432 731 448 760 9 17 39 66
65 110 26 44 53 89 59 100 62 107 79 136 88 141 6 4 281 -263 611 -592 330
-330 593 -588 585 -574 -13 22 -289 472 -663 1080 -73 118 -182 296 -242 395
-61 99 -159 259 -218 355 -60 96 -116 187 -125 202 l-16 27 -129 -277 c-71
-152 -152 -326 -180 -387 -29 -60 -94 -200 -145 -310 -51 -110 -127 -274 -170
-365 -42 -91 -94 -202 -115 -247 -21 -46 -41 -83 -45 -83 -3 0 -53 111 -110
248 -57 136 -123 292 -146 347 -23 55 -79 188 -124 295 -45 107 -97 231 -115
275 -205 492 -211 507 -226 486z"/>
<path d="M2358 3513 c-148 -2 -268 -7 -268 -12 0 -8 49 -129 169 -416 21 -49
64 -156 97 -237 52 -129 74 -171 74 -139 0 5 74 186 165 402 91 216 165 396
165 401 0 4 -30 7 -67 6 -38 -2 -188 -4 -335 -5z m277 -121 c-7 -15 -55 -119
-105 -232 -51 -113 -96 -209 -100 -213 -4 -5 -13 6 -18 25 -79 250 -113 371
-107 376 8 8 328 80 337 75 3 -2 0 -16 -7 -31z"/>
<path d="M897 1213 c-8 -14 -8 -233 0 -246 4 -6 10 39 13 103 l5 115 34 -85
c42 -108 60 -142 70 -136 4 3 25 50 47 106 21 55 42 100 46 100 4 0 9 -48 11
-107 l3 -108 2 133 c1 99 -1 133 -10 130 -6 -2 -32 -55 -56 -116 -25 -62 -47
-110 -50 -107 -3 2 -24 53 -48 112 -39 100 -55 126 -67 106z"/>
<path d="M1242 1204 c-50 -35 -66 -116 -36 -180 41 -86 166 -84 208 3 29 61
13 143 -35 177 -30 20 -108 21 -137 0z m141 -35 c22 -24 27 -39 27 -80 0 -43
-5 -55 -29 -80 -23 -23 -38 -29 -71 -29 -61 0 -100 41 -100 105 0 67 20 98 75
117 33 11 68 -1 98 -33z"/>
<path d="M1487 1213 c-11 -10 -8 -243 3 -243 5 0 11 48 12 111 l3 112 78 -117
c43 -64 82 -114 87 -111 13 8 13 255 0 255 -5 0 -11 -49 -12 -112 l-3 -113
-74 113 c-73 110 -81 119 -94 105z"/>
<path d="M1911 1124 c-25 -32 -28 -100 -6 -131 21 -30 78 -40 110 -19 14 9 25
21 25 27 0 6 -12 1 -26 -10 -35 -27 -59 -26 -89 4 -33 32 -35 95 -3 125 28 26
72 26 98 0 11 -11 20 -16 20 -12 0 20 -39 42 -73 42 -27 0 -41 -7 -56 -26z"/>
<path d="M2111 1128 c-44 -47 -34 -128 19 -155 29 -16 76 -9 101 13 37 33 30
132 -11 154 -33 18 -88 12 -109 -12z m110 -7 c35 -28 33 -95 -4 -127 -37 -32
-62 -30 -98 5 -32 33 -36 58 -14 101 23 44 76 54 116 21z"/>
<path d="M2302 1058 c1 -51 3 -74 5 -50 l4 42 44 0 c24 0 47 5 50 10 4 6 -13
10 -44 10 l-51 0 0 35 0 34 58 4 57 3 -62 2 -63 2 2 -92z"/>
<path d="M2472 1058 c1 -51 3 -74 5 -50 l4 42 45 0 c24 0 44 5 44 10 0 6 -20
10 -45 10 -45 0 -45 0 -45 35 l0 34 58 4 57 3 -62 2 -63 2 2 -92z"/>
<path d="M2630 1060 c0 -49 3 -90 8 -90 4 0 7 19 7 42 l0 43 55 6 55 6 -57 1
-58 2 0 35 0 34 63 4 62 3 -67 2 -68 2 0 -90z"/>
<path d="M2810 1060 c0 -49 3 -90 8 -90 4 0 7 19 7 42 l0 43 55 6 55 6 -57 1
-58 2 0 35 0 34 63 4 62 3 -67 2 -68 2 0 -90z"/>
<path d="M3154 1060 c0 -52 1 -74 3 -47 l4 47 59 0 59 0 4 -47 c2 -27 3 -5 3
47 0 52 -1 76 -3 53 l-4 -43 -59 0 -59 0 -4 43 c-2 23 -3 -1 -3 -53z"/>
<path d="M3362 1127 c-12 -13 -22 -32 -22 -43 1 -13 5 -10 14 12 22 51 81 60
121 19 51 -50 12 -145 -59 -145 -22 0 -64 39 -69 63 -4 21 -4 21 -6 1 -4 -68
98 -95 146 -39 21 24 24 36 20 74 -6 55 -34 81 -86 81 -26 0 -44 -7 -59 -23z"/>
<path d="M3551 1088 c-1 -79 12 -114 47 -123 35 -9 80 3 86 23 11 39 18 106
10 99 -4 -4 -9 -20 -11 -35 -2 -15 -6 -37 -8 -49 -9 -39 -84 -43 -100 -5 -4 9
-11 49 -15 87 l-7 70 -2 -67z"/>
<path d="M3760 1136 c-24 -30 -8 -60 40 -76 59 -20 70 -27 70 -50 0 -43 -68
-53 -105 -15 -27 26 -31 25 -15 -5 26 -48 130 -28 130 24 0 30 -14 41 -68 56
-47 12 -61 32 -42 55 17 20 59 19 82 -2 20 -18 25 -4 6 15 -17 17 -83 15 -98
-2z"/>
<path d="M3932 1058 c1 -69 3 -81 7 -48 l6 45 55 6 55 6 -57 1 -58 2 0 35 0
34 63 4 62 3 -67 2 -68 2 2 -92z"/>
</g>
</svg>
