<?xml version="1.0" standalone="no"?>
<!DOCTYPE svg PUBLIC "-//W3C//DTD SVG 20010904//EN"
 "http://www.w3.org/TR/2001/REC-SVG-20010904/DTD/svg10.dtd">
<svg version="1.0" xmlns="http://www.w3.org/2000/svg"
 width="2000.000000pt" height="2000.000000pt" viewBox="0 0 2000.000000 2000.000000"
 preserveAspectRatio="xMidYMid meet">

<g transform="translate(0.000000,2000.000000) scale(0.100000,-0.100000)"
fill="#000000" stroke="none">
<path d="M6723 16483 c-754 -923 -4693 -5766 -4691 -5768 2 -1 1029 773 2283
1721 2176 1644 2280 1722 2291 1701 7 -12 710 -1536 1564 -3387 854 -1851
1553 -3366 1554 -3367 1 -1 1723 2918 3309 5610 l64 108 2443 -2438 c1344
-1341 2438 -2429 2432 -2418 -70 124 -5149 8386 -5156 8386 -4 0 -711 -1508
-1570 -3350 -858 -1843 -1563 -3351 -1566 -3351 -3 0 -638 1506 -1409 3348
-772 1841 -1407 3351 -1411 3355 -4 5 -66 -63 -137 -150z"/>
<path d="M9563 14056 c-672 -12 -1224 -24 -1226 -26 -7 -8 1337 -3269 1344
-3262 5 6 1356 3222 1384 3295 9 21 131 21 -1502 -7z m1013 -373 c-27 -76
-872 -1940 -877 -1935 -7 9 -500 1624 -499 1639 0 6 35 19 78 29 42 9 343 77
667 150 325 72 601 132 614 133 18 1 22 -3 17 -16z"/>
<path d="M5115 4886 c-169 -41 -301 -181 -346 -366 -18 -76 -16 -241 4 -317
70 -268 298 -413 568 -363 175 33 324 187 364 377 32 148 10 331 -52 446 -98
181 -325 275 -538 223z m291 -100 c152 -69 234 -217 234 -421 0 -158 -45 -272
-140 -358 -75 -68 -142 -91 -266 -91 -99 -1 -103 0 -180 39 -129 66 -192 164
-216 337 -21 149 21 312 106 405 39 44 131 97 192 113 22 5 78 8 125 6 68 -3
99 -9 145 -30z"/>
<path d="M3570 4365 l0 -515 40 0 40 0 2 442 3 442 180 -442 180 -442 40 0 41
0 180 440 179 439 3 -439 2 -440 40 0 40 0 0 515 0 515 -54 0 -54 0 -70 -172
c-39 -95 -123 -305 -188 -467 -90 -224 -120 -289 -126 -275 -5 10 -88 219
-186 464 l-178 445 -57 3 -57 3 0 -516z"/>
<path d="M5930 4365 l0 -515 35 0 35 0 2 466 3 467 310 -466 310 -466 53 -1
52 0 0 515 0 515 -40 0 -40 0 0 -467 0 -468 -310 468 -311 467 -49 0 -50 0 0
-515z"/>
<path d="M7773 4602 c-139 -49 -210 -150 -228 -323 -8 -75 7 -179 35 -243 27
-65 101 -139 163 -166 31 -14 81 -25 123 -28 159 -10 279 67 319 206 6 19 3
22 -24 22 -25 0 -31 -5 -41 -34 -35 -108 -190 -164 -328 -120 -71 23 -116 64
-154 141 -30 62 -32 74 -33 167 0 131 20 192 85 257 77 77 194 100 304 59 55
-21 117 -77 131 -119 4 -15 15 -21 35 -21 28 0 28 0 17 36 -16 54 -88 127
-149 154 -73 32 -185 37 -255 12z"/>
<path d="M8573 4606 c-60 -20 -127 -61 -157 -97 -131 -156 -123 -432 16 -571
113 -113 312 -130 450 -38 103 69 168 224 154 371 -19 209 -146 338 -339 346
-51 2 -98 -2 -124 -11z m206 -62 c68 -20 141 -86 172 -157 31 -70 33 -215 5
-297 -26 -75 -102 -150 -175 -173 -170 -54 -331 27 -382 193 -43 144 -11 290
83 375 79 71 186 92 297 59z"/>
<path d="M13583 4606 c-60 -20 -127 -61 -157 -97 -131 -156 -123 -432 16 -571
113 -113 312 -130 450 -38 103 69 168 224 154 371 -19 209 -146 338 -339 346
-51 2 -98 -2 -124 -11z m206 -62 c68 -20 141 -86 172 -157 31 -70 33 -215 5
-297 -26 -75 -102 -150 -175 -173 -170 -54 -331 27 -382 193 -43 144 -11 290
83 375 79 71 186 92 297 59z"/>
<path d="M15122 4602 c-119 -43 -174 -156 -126 -257 28 -59 89 -90 259 -131
174 -42 225 -78 225 -158 0 -89 -72 -146 -196 -154 -131 -8 -240 44 -265 129
-11 34 -16 39 -41 39 -28 0 -29 -2 -23 -32 21 -98 97 -167 210 -188 128 -24
260 5 322 72 55 59 69 162 31 230 -36 64 -91 90 -280 132 -111 25 -170 53
-188 86 -19 36 -12 96 16 129 46 56 169 76 271 46 52 -16 123 -79 123 -110 0
-10 10 -15 30 -15 28 0 30 2 24 28 -11 52 -57 106 -117 136 -76 39 -194 46
-275 18z"/>
<path d="M9200 4230 l0 -380 30 0 30 0 0 180 0 180 190 0 190 0 0 30 0 30
-190 0 -190 0 0 140 0 140 215 0 215 0 0 30 0 30 -245 0 -245 0 0 -380z"/>
<path d="M9860 4230 l0 -380 30 0 30 0 0 180 0 180 190 0 190 0 0 30 0 30
-190 0 -190 0 0 140 0 140 215 0 215 0 0 30 0 30 -245 0 -245 0 0 -380z"/>
<path d="M10520 4230 l0 -380 275 0 275 0 0 30 0 30 -245 0 -245 0 0 155 0
155 220 0 220 0 0 30 0 30 -220 0 -220 0 0 135 0 135 235 0 235 0 0 30 0 30
-265 0 -265 0 0 -380z"/>
<path d="M11240 4230 l0 -380 275 0 275 0 0 30 0 30 -245 0 -245 0 0 155 0
155 220 0 220 0 0 30 0 30 -220 0 -220 0 0 135 0 135 235 0 235 0 0 30 0 30
-265 0 -265 0 0 -380z"/>
<path d="M12590 4230 l0 -380 25 0 25 0 2 188 3 187 233 3 232 2 0 -190 0
-190 30 0 30 0 0 380 0 380 -30 0 -30 0 0 -160 0 -160 -235 0 -235 0 0 160 0
160 -25 0 -25 0 0 -380z"/>
<path d="M14212 4318 c3 -330 7 -350 81 -415 92 -81 314 -85 407 -6 75 63 90
140 90 465 l0 248 -30 0 -30 0 0 -263 c0 -302 -7 -345 -65 -396 -56 -49 -160
-65 -260 -40 -53 13 -108 68 -125 126 -8 23 -14 143 -17 306 l-5 267 -25 0
-24 0 3 -292z"/>
<path d="M15710 4230 l0 -380 275 0 275 0 0 30 0 30 -245 0 -245 0 0 155 0
155 220 0 220 0 0 30 0 30 -220 0 -220 0 0 135 0 135 235 0 235 0 0 30 0 30
-265 0 -265 0 0 -380z"/>
</g>
</svg>
